<svg class="hl-logo" width="229" height="71" viewBox="0 0 530 165" xmlns="http://www.w3.org/2000/svg">
    <path d="M305.648 53.556h-6.425v-14.07l-14.605-.005-.005 14.07h-6.43l.01-32.596 6.43.006-.005 13.305 14.61.005.005-13.306h6.425l-.01 32.59zM310.375 56.658h2.34c2.065 0 3.01.05 4.045-2.514l.27-.675-9.255-24.096h6.79l5.48 17.445 5.625-17.44h6.29l-8.865 23.465c-2.83 7.505-4.09 8.585-10.115 8.58h-2.605v-4.765zM345.448 33.612c-3.42 0-5.665 3.01-5.665 7.865-.005 4.945 2.24 7.91 5.66 7.91 3.19.005 5.525-3.145 5.53-7.86 0-4.72-2.335-7.915-5.525-7.915zm-11.64-4.23h6.205l-.005 3.105c1.305-2.25 3.91-3.64 6.97-3.64 5.845 0 10.515 5.04 10.515 12.635-.005 7.73-4.815 12.675-10.57 12.67-2.515 0-5.395-.99-6.92-3.64l-.005 10.92h-6.2l.01-32.05zM377.03 38.925c-.13-4.09-3.01-5.525-5.615-5.53-2.34 0-5.35 1.48-5.845 5.53h11.46zm-5.44 10.425c1.89 0 3.82-.67 5.08-2.785l6.38.005c-1.305 3.594-4.855 7.594-11.42 7.59-7.775 0-12.31-5.8-12.31-12.765 0-7.196 4.995-12.54 12.14-12.54 7.46.005 12.135 5.8 11.86 14.345l-17.845-.006c.315 4.136 3.195 6.155 6.115 6.155zM397.704 35.248c-3.055 0-5.08 1.12-5.085 5.66v12.675h-6.205l.01-24.185 6.11.005v4.224c1.395-2.965 3.6-4.18 6.385-4.18.405 0 .945.046 1.35.09l-.005 5.846a24.32 24.32 0 0 0-2.56-.136zM402.264 53.587l.01-32.59h6.205l-.01 32.59h-6.205zM429.291 38.941c-.13-4.09-3.01-5.53-5.615-5.53-2.34 0-5.35 1.48-5.845 5.53h11.46zm-5.44 10.425c1.89 0 3.82-.67 5.08-2.785l6.38.005c-1.305 3.596-4.855 7.596-11.42 7.59-7.775 0-12.31-5.8-12.31-12.765 0-7.194 4.995-12.54 12.14-12.54 7.46 0 12.135 5.8 11.86 14.34h-17.845c.315 4.136 3.195 6.156 6.115 6.156zM451.898 28.88c5.8 0 8.36 3.555 8.36 9.485l-.005 15.24h-6.205l.005-13.89c0-3.145-.675-5.845-4.18-5.845-4.09 0-4.99 3.326-4.99 7.146l-.005 12.584h-6.205l.01-24.184h6.205v3.195c1.39-2.43 4.045-3.73 7.01-3.73zM473.141 33.248c-2.29 0-3.91.85-3.91 2.335 0 1.305.94 2.295 3.235 2.79l3.235.72c4.81 1.08 8.9 2.295 8.9 7.28-.005 4.86-4.995 7.825-10.48 7.82-5.93 0-10.425-3.06-11.01-8.585h5.98c.36 2.335 2.02 4.09 5.21 4.095 2.655 0 4.36-.99 4.36-2.745.005-1.795-1.88-2.515-3.95-2.97l-3.595-.76c-4.54-.945-7.555-2.835-7.55-7.24 0-4.36 4.675-7.195 9.89-7.19 5.035 0 9.845 2.34 10.65 7.915l-5.795-.005c-.45-2.02-2.34-3.46-5.17-3.46zM275.108 72.642v-5.21l26.525.005-.005 5.216-10.065-.006-.01 27.381-6.43-.005.01-27.376-10.025-.005zM317.003 75.308c5.8 0 8.36 3.555 8.36 9.485l-.005 15.241h-6.205l.005-13.89c0-3.145-.67-5.846-4.175-5.846-4.095 0-4.995 3.326-4.995 7.145l-.005 12.585h-6.205l.015-32.59 6.2.005V79.04c1.39-2.425 4.045-3.73 7.01-3.73zM345.929 85.386c-.13-4.09-3.01-5.524-5.615-5.53-2.34 0-5.35 1.48-5.845 5.53h11.46zm-5.44 10.425c1.885 0 3.82-.67 5.08-2.785l6.38.005c-1.305 3.595-4.855 7.595-11.42 7.59-7.775 0-12.31-5.8-12.31-12.764 0-7.195 4.995-12.54 12.14-12.54 7.46 0 12.135 5.8 11.86 14.345l-17.845-.006c.315 4.135 3.19 6.155 6.115 6.155zM380.623 100.636c-9.665 0-15.235-6.655-15.23-17.04.005-10.296 5.94-16.72 15.42-16.716 7.64 0 12.855 4.366 13.93 11.15h-6.11c-1.215-4.54-4.27-6.025-7.865-6.03-4.945 0-8.72 4.046-8.725 11.6 0 7.776 3.775 11.91 8.49 11.916 3.865 0 7.06-1.756 8.095-6.16l6.115.005c-.86 6.56-6.3 11.28-14.12 11.275zM444.085 87.487v12.584h-6.205l.005-14.07c0-2.65-.225-5.665-3.865-5.665-4.135 0-4.81 3.46-4.815 7.145l-.005 12.585H423l.01-24.184 6.2.004v3.19c1.35-2.38 3.825-3.73 6.745-3.73 4.135.005 5.93 2.206 6.875 3.96 1.89-2.694 4.315-3.954 7.955-3.954 6.07.004 8.18 3.78 8.18 9.49l-.005 15.234h-6.205l.005-14.07c0-2.65-.22-5.665-3.865-5.665-4.13 0-4.81 3.46-4.81 7.146zM479.603 85.43c-.13-4.09-3.01-5.53-5.615-5.53-2.34 0-5.35 1.48-5.845 5.525l11.46.005zm-5.44 10.425c1.885 0 3.82-.67 5.08-2.785l6.385.006c-1.31 3.595-4.86 7.594-11.425 7.59-7.775 0-12.31-5.8-12.31-12.77 0-7.19 4.995-12.54 12.14-12.535 7.46 0 12.135 5.8 11.865 14.34h-17.85c.315 4.13 3.19 6.155 6.115 6.155zM500.277 81.751c-3.055 0-5.08 1.12-5.08 5.66l-.005 12.676h-6.205l.01-24.18h6.11v4.225c1.395-2.966 3.6-4.18 6.385-4.18.405 0 .945.05 1.35.09l-.005 5.844a24.32 24.32 0 0 0-2.56-.135zM284.589 130.042h5.305c4 .005 7.145-.985 7.145-5.299.005-5.351-4.085-5.8-7.59-5.8l-4.86-.005v11.104zm19.06-5.34c0 8.315-6.655 10.335-14.165 10.33h-4.895l-.005 11.465-6.43-.005.01-32.59 11.15.005c6.695 0 14.34.95 14.335 10.795zM305.844 146.502l.01-32.59h6.205l-.01 32.59h-6.205zM381.522 142.257c3.42 0 5.845-2.74 5.845-7.775.005-5.08-2.425-7.825-5.84-7.825s-5.845 2.74-5.845 7.82c0 5.035 2.425 7.78 5.84 7.78zm.005-20.455c6.115.005 12.14 4.185 12.135 12.68-.005 8.495-6.025 12.63-12.14 12.63-6.115-.005-12.135-4.14-12.135-12.635.005-8.495 6.03-12.675 12.14-12.675zM408.056 128.195c-3.055 0-5.08 1.125-5.08 5.66l-.005 12.675h-6.205l.01-24.18h6.115l-.005 4.225c1.395-2.965 3.6-4.18 6.385-4.18.405 0 .945.05 1.35.09l-.005 5.845a24.32 24.32 0 0 0-2.56-.135zM433.866 133.956l-.005 12.585h-6.205l.005-14.07c.005-2.655-.22-5.665-3.86-5.665-4.135 0-4.815 3.46-4.815 7.145l-.005 12.585h-6.2l.01-24.185 6.2.005v3.19c1.345-2.38 3.82-3.73 6.745-3.73 4.135 0 5.93 2.205 6.875 3.96 1.885-2.695 4.315-3.955 7.955-3.955 6.07.005 8.18 3.78 8.18 9.49l-.005 15.235h-6.205l.005-14.07c0-2.655-.225-5.665-3.865-5.665-4.135 0-4.81 3.46-4.81 7.145zM514.142 96.231c-2.54 0-4.03-1.215-4.03-2.97 0-2.694 2.79-3.504 9.71-4.22v1.2c0 3.505-2.47 5.99-5.68 5.99zm1.28-20.95c-6.2 0-10.16 3.505-10.61 8.27h5.795c.14-2.65 2.115-3.91 4.5-3.91 2.515.005 4.54 1.305 4.54 5.035v.41c-9.485 1.076-15.915 2.78-15.92 8.49 0 4.406 4.09 7.101 8.72 7.106 3.31 0 5.725-1.45 7.425-3.606l.025 3.011h5.86V85.942c0-7.845-4.115-10.66-10.335-10.66zM325.756 142.655c-2.54 0-4.03-1.22-4.03-2.97 0-2.695 2.785-3.505 9.71-4.22v1.2c0 3.505-2.47 5.99-5.68 5.99zm1.28-20.95c-6.2 0-10.16 3.505-10.61 8.27h5.795c.14-2.65 2.115-3.91 4.5-3.91 2.515.005 4.54 1.305 4.535 5.035v.41c-9.48 1.07-15.91 2.78-15.915 8.485 0 4.41 4.09 7.105 8.72 7.11 3.31 0 5.725-1.45 7.425-3.605l.025 3.01h5.86v-14.15c0-7.84-4.115-10.655-10.335-10.655zM407.027 96.231c-2.54 0-4.03-1.215-4.03-2.97 0-2.694 2.785-3.504 9.71-4.22v1.2c0 3.505-2.47 5.99-5.68 5.99zm1.28-20.95c-6.205 0-10.16 3.505-10.61 8.27h5.795c.14-2.65 2.115-3.91 4.5-3.91 2.515.005 4.54 1.305 4.535 5.035v.41c-9.48 1.076-15.91 2.78-15.915 8.49 0 4.406 4.09 7.101 8.72 7.106 3.31 0 5.725-1.45 7.425-3.606l.025 3.011h5.86V85.942c0-7.845-4.115-10.66-10.335-10.66zM497.752 22.506c-4.275 0-7.76 3.48-7.76 7.755 0 4.28 3.485 7.76 7.76 7.76s7.755-3.48 7.755-7.76c0-4.275-3.48-7.755-7.755-7.755zm0 17.715c-5.49 0-9.955-4.47-9.955-9.96 0-5.485 4.465-9.955 9.955-9.955s9.955 4.47 9.955 9.955c0 5.49-4.465 9.96-9.955 9.96z M497.75 35.548a5.273 5.273 0 0 1-3.74-1.545 5.293 5.293 0 0 1 0-7.475 5.3 5.3 0 0 1 7.48 0c.55.55.96 1.2 1.23 1.93l-2.31.84c-.14-.395-.36-.74-.66-1.04a2.838 2.838 0 0 0-4.005 0 2.834 2.834 0 1 0 4.665 2.975l2.31.835a5.273 5.273 0 0 1-4.97 3.48zM367.934 118.517h1.215v-4.585h-2.11c-6.07 0-8.945.94-8.95 7.055v1.35h-2.865v4.27h2.865l-.005 19.91 6.2.005.005-19.915 4.855.005.005-4.275h-4.855v-1.17c0-2.29.585-2.65 3.64-2.65zM348.532 139.098l.005-12.495h4.525v-4.27h-4.525v-6.565h-6.2v6.56h-3.415l-.005 4.27h3.415l-.005 13.4c0 4.81 1.08 6.515 6.61 6.515l4.54.005v-4.45h-1.89c-2.2-.005-3.055-.495-3.055-2.97z"/>
</svg>



