<svg width="23" height="21" viewBox="0 0 23 21" fill="#fff" xmlns="http://www.w3.org/2000/svg">
    <path d="M1 18.875v-.5H.5v.5H1zm21 0h.5v-.5H22v.5zm-21 1H.5v.5H1v-.5zm21 0v.5h.5v-.5H22zm-10.5-1.506l-.438.242.438.794.438-.794-.438-.242zm-.438-.794l.438-.242-.438.242zm.876 0l-.438-.242.438.242zm9-16.334l.438.242-.438-.242zM21.346.5l.438.241.409-.741h-.847v.5zM1.654.5V0H.807l.409.741L1.654.5zm.408.741l-.438.242.438-.242zm1.284.259V1H2.5l.408.741.438-.241zM11.5 16.297l-.438.242.438.794.438-.794-.438-.242zM19.654 1.5l.438.241L20.5 1h-.846v.5zM1 19.375h21v-1H1v1zm.5.5v-1h-1v1h1zm20.5-.5H1v1h21v-1zm-.5-.5v1h1v-1h-1zm-9.562-.747l-.438-.795-.876.483.438.795.876-.483zm-.438-.795l-.438.795.876.483.438-.795-.876-.483zM20.5 1l-9 16.333.876.483 9-16.333L20.5 1zm.409-.741L20.5 1l.876.483.408-.742L20.91.26zM20.5 1h.846V0H20.5v1zm-18 0h18V0h-18v1zm-.846 0H2.5V0h-.846v1zM2.5 1L2.092.259 1.216.74l.408.742L2.5 1zm9 16.333L2.5 1l-.876.483 9 16.333.876-.483zM2.908 1.741l8.154 14.798.876-.483L3.784 1.259l-.876.482zM19.654 1H3.346v1h16.308V1zm-7.716 15.539L20.09 1.74l-.875-.482-8.154 14.797.876.483z"/>
</svg>
