<svg width="179" height="27" viewBox="0 0 179 27" fill="none" xmlns="http://www.w3.org/2000/svg">
<path d="M29.3125 23.8237L29.3125 4.16119C29.3125 3.14012 29.5441 2.37349 30.0073 1.86313C30.47 1.35261 31.0694 1.09681 31.8032 1.09681C32.5602 1.09681 33.1727 1.34993 33.642 1.85482C34.1104 2.35982 34.3454 3.12819 34.3454 4.16119V23.8237C34.3454 24.8561 34.1104 25.628 33.642 26.1386C33.1727 26.6498 32.5602 26.9053 31.8032 26.9053C31.0801 26.9053 30.4844 26.6468 30.0154 26.1303C29.5467 25.6138 29.3125 24.8445 29.3125 23.8237" fill="black"/>
<path fill-rule="evenodd" clip-rule="evenodd" d="M153.215 14.0098C153.215 21.1201 158.969 26.9053 166.039 26.9053C173.111 26.9053 178.863 21.1201 178.863 14.0098C178.863 6.89746 173.111 1.11328 166.039 1.11328C158.969 1.11328 153.215 6.89746 153.215 14.0098ZM158.406 14.0088C158.406 9.77734 161.83 6.33301 166.039 6.33301C170.248 6.33301 173.672 9.77734 173.672 14.0088C173.672 18.2412 170.248 21.6846 166.039 21.6846C161.83 21.6846 158.406 18.2412 158.406 14.0088Z" fill="black"/>
<path fill-rule="evenodd" clip-rule="evenodd" d="M95.6426 14.0098C95.6426 21.1201 101.395 26.9053 108.467 26.9053C115.539 26.9053 121.291 21.1201 121.291 14.0098C121.291 6.89746 115.539 1.11328 108.467 1.11328C101.395 1.11328 95.6426 6.89746 95.6426 14.0098ZM100.834 14.0088C100.834 9.77734 104.258 6.33301 108.467 6.33301C112.676 6.33301 116.1 9.77734 116.1 14.0088C116.1 18.2412 112.676 21.6846 108.467 21.6846C104.258 21.6846 100.834 18.2412 100.834 14.0088Z" fill="black"/>
<path fill-rule="evenodd" clip-rule="evenodd" d="M146.623 6.38379C148.18 8.51953 149.104 11.1514 149.105 14.001C149.104 15.4395 148.869 16.8203 148.438 18.1104C148.012 19.3789 147.395 20.5596 146.623 21.6182C144.357 24.7246 140.746 26.7744 136.66 26.8955L136.461 26.9023L136.279 26.9053L129.84 26.8975C128.74 26.8975 127.943 26.6455 127.451 26.1416C126.959 25.6377 126.713 24.8242 126.713 23.7002V4.30273C126.713 3.17773 126.959 2.36426 127.451 1.86035C127.943 1.35742 128.74 1.10547 129.84 1.10547L136.279 1.09668L136.545 1.10254L136.66 1.10742C140.746 1.22754 144.357 3.27832 146.623 6.38379ZM135.184 21.6689C135.902 21.6689 136.568 21.6621 137.189 21.6211C139.416 21.3535 141.35 20.1221 142.564 18.3496C143.41 17.1162 143.91 15.625 143.914 14.0039C143.914 13.9932 143.912 13.9893 143.912 13.9854C143.91 13.0449 143.738 12.1445 143.428 11.3115C143.207 10.7207 142.916 10.1641 142.564 9.65137C141.35 7.87988 139.416 6.64746 137.189 6.37988C136.568 6.34082 135.902 6.33203 135.184 6.33203H131.816V21.6689H135.184ZM143.914 14.0039C143.914 14.0078 143.912 14.0117 143.912 14.0156L143.914 14.0039Z" fill="black"/>
<path d="M88.3798 1.21199C87.4426 0.919235 86.4302 1.28962 85.8843 2.12589L78.1519 13.9704L70.4196 2.12589C69.8743 1.28962 68.8614 0.919235 67.9242 1.21199C66.9873 1.50507 66.3477 2.39317 66.3477 3.39988V24.4512C66.3477 25.7144 67.3439 26.7383 68.572 26.7383C69.8009 26.7383 70.7968 25.7144 70.7968 24.4512V10.9128L76.287 19.3217C76.2906 19.3275 76.2943 19.3329 76.2979 19.3388L76.3047 19.3489C76.3113 19.3593 76.3191 19.3685 76.3259 19.3789C76.3602 19.4292 76.3954 19.4793 76.4344 19.5272C76.4514 19.5486 76.4692 19.5676 76.4867 19.5877C76.5175 19.623 76.5473 19.6586 76.58 19.692C76.6093 19.7222 76.6406 19.7505 76.6718 19.7794C76.6942 19.8 76.7167 19.8218 76.7402 19.842C76.7842 19.879 76.8286 19.9122 76.8746 19.9448C76.8877 19.954 76.8992 19.965 76.9125 19.9739C76.9141 19.9753 76.9159 19.976 76.9183 19.9774C76.9671 20.0109 77.0179 20.0412 77.0696 20.0707C77.0837 20.079 77.0979 20.0888 77.1122 20.0962C77.1507 20.1176 77.1904 20.1351 77.2306 20.154C77.4557 20.2598 77.6915 20.3259 77.9289 20.3506C77.931 20.3506 77.9323 20.3507 77.9336 20.3514C77.9809 20.3555 78.0279 20.3564 78.0745 20.3584C78.1004 20.3594 78.1265 20.3617 78.1519 20.3617C78.1783 20.3617 78.2036 20.3594 78.2295 20.3584C78.2768 20.3564 78.3236 20.3555 78.3707 20.3514C78.372 20.3507 78.3738 20.3506 78.3751 20.3506C78.613 20.3259 78.8485 20.2598 79.0738 20.154C79.1136 20.1351 79.1538 20.1176 79.192 20.0962C79.2069 20.0888 79.2202 20.079 79.2351 20.0707C79.2866 20.0412 79.3371 20.0109 79.386 19.9774C79.3883 19.976 79.3904 19.9753 79.3922 19.9739C79.4053 19.965 79.4168 19.954 79.4296 19.9448C79.4756 19.9122 79.5209 19.879 79.5642 19.842C79.588 19.8218 79.61 19.8 79.6335 19.7786C79.6638 19.7505 79.695 19.7222 79.7242 19.6926C79.7574 19.6586 79.7872 19.6227 79.8178 19.5874C79.8356 19.5676 79.8536 19.5481 79.8701 19.5272C79.9088 19.4793 79.9441 19.4292 79.9786 19.3789C79.9854 19.3685 79.9932 19.3593 80 19.3489L80.0063 19.3388C80.0102 19.3329 80.0136 19.3275 80.0178 19.3217L85.5071 10.9128V24.4512C85.5071 25.7144 86.5026 26.7383 87.7328 26.7383C88.9603 26.7383 89.9574 25.7144 89.9574 24.4512V3.39988C89.9574 2.39317 89.3169 1.50507 88.3798 1.21199Z" fill="black"/>
<path d="M58.7756 26.1201L42.1455 26.1201C41.2709 26.1201 40.2989 25.5698 39.939 24.7135C39.5788 23.8579 39.505 22.6929 40.2796 21.7646L53.8831 5.8926H42.6446C41.4159 5.8926 40.4194 4.82254 40.4194 3.50233C40.4194 2.18214 41.4159 1.37587 42.6446 1.37587L57.7995 1.37587C58.6739 1.37587 59.5797 1.51572 60.371 2.3875C61.094 3.18413 61.0621 4.90345 60.2523 5.92875L47.1084 21.3402L58.7756 21.3402C60.0045 21.3402 60.899 22.4103 60.899 23.7299C60.899 25.0497 60.0045 26.1201 58.7756 26.1201" fill="black"/>
<path d="M12.7319 26.9053C9.0416 26.9053 5.69485 25.4339 3.30816 22.7622C1.20544 20.4084 0 17.3069 0 14.2529C0 4.66887 7.92274 1.09713 12.9171 1.09713C17.8274 1.09713 21.432 3.5185 21.5829 3.62107C22.6888 4.37579 22.9847 5.90075 22.2439 7.0271C21.5048 8.14963 20.0147 8.45306 18.9099 7.70685C18.8455 7.66537 16.2885 6.00682 12.9171 6.00682C9.78661 6.00682 5.46968 8.08441 5.46968 14.2529C5.46968 17.7621 8.06549 21.9011 12.8249 21.9011C15.5027 21.9011 17.3854 21.1837 18.4798 20.4833V16.8335H14.7713C13.4402 16.8335 12.361 15.7347 12.361 14.3786C12.361 13.0229 13.4402 11.9238 14.7713 11.9238H20.8904C22.2214 11.9238 23.3007 13.0229 23.3007 14.3786V21.6802C23.3007 22.3444 23.0366 22.9794 22.5691 23.442C20.9531 25.0395 17.4071 26.9053 12.7319 26.9053Z" fill="black"/>
</svg>
