<svg width="164" height="31" viewBox="0 0 164 31" fill="none" xmlns="http://www.w3.org/2000/svg">
<g transform="translate(0 -1)">
    <path d="M24.9328 30.2344L24.9328 12.1291L18.0377 30.2344L14.9158 30.2344L7.97571 12.1291L7.97571 30.2344H0.912109L0.912109 2.85469H10.727L16.4767 17.9621L22.1815 2.85469H31.9964L31.9964 30.2344H24.9328Z" fill="black"/>
    <path fill-rule="evenodd" clip-rule="evenodd" d="M46.0312 28.2637V30.2344L52.3535 30.2344V17.8389C52.3535 11.6797 47.8789 9.91699 43.1172 9.91699C40.0781 9.91699 36.6699 10.8154 34.1211 12.9941L36.4629 17.3838C38.0625 16.0312 40.0332 15.251 42.0059 15.251C44.5547 15.251 46.0312 16.4404 46.0312 18.1641V20.1348C44.8398 18.6582 42.498 17.7939 39.8711 17.7939C36.834 17.7939 33.0547 19.3994 33.0547 24.1992C33.0547 28.6348 36.834 30.7285 39.8711 30.7285C42.4141 30.7285 44.8008 29.7402 46.0312 28.2637ZM46.0312 23.3799V25.1426C45.373 26.0918 43.8965 26.5801 42.5 26.5801C40.8594 26.5801 39.3379 25.8447 39.3379 24.2842C39.3379 22.7236 40.8594 21.9824 42.5 21.9824C43.8965 21.9824 45.373 22.4365 46.0312 23.3799Z" fill="black"/>
    <path d="M52.8027 27.6491L55.4305 23.1354C56.9073 24.4491 60.0685 25.8021 62.4099 25.8021C64.2965 25.8021 65.077 25.2687 65.077 24.4042C65.077 21.9452 53.5439 24.4884 53.5439 16.4435C53.5439 12.9515 56.5816 9.91433 62.0393 9.91433C65.4083 9.91433 68.1989 10.981 70.3326 12.5417L67.9125 17.0161C66.7222 15.8652 64.465 14.8435 62.0842 14.8435C60.6019 14.8435 59.6193 15.4161 59.6193 16.1964C59.6193 18.3691 71.1131 16.1122 71.1131 24.2414C71.1131 28.0196 67.789 30.7256 62.1235 30.7256C58.5524 30.7256 54.8971 29.5354 52.8027 27.6491Z" fill="black"/>
    <path d="M85.3589 30.2354V18.6985C85.3589 16.2788 84.0843 15.4985 82.0742 15.4985C80.2269 15.4985 78.9972 16.5259 78.256 17.4297V30.2354H71.9336V2.85567H78.256V12.8318C79.4464 11.4339 81.7878 9.91813 85.1119 9.91813C89.6263 9.91813 91.6813 12.4613 91.6813 16.116V30.2354L85.3589 30.2354Z" fill="black"/>
    <path fill-rule="evenodd" clip-rule="evenodd" d="M105.559 28.2637V30.2344L111.881 30.2344V17.8389C111.881 11.6797 107.406 9.91699 102.645 9.91699C99.6055 9.91699 96.1973 10.8154 93.6484 12.9941L95.9902 17.3838C97.1992 16.3613 98.6211 15.666 100.096 15.3877C100.572 15.2979 101.053 15.251 101.533 15.251C104.082 15.251 105.559 16.4404 105.559 18.1641V20.1348C104.367 18.6582 102.025 17.7939 99.3984 17.7939C96.3613 17.7939 92.582 19.3994 92.582 24.1992C92.582 28.6348 96.3613 30.7285 99.3984 30.7285C101.941 30.7285 104.328 29.7402 105.559 28.2637ZM105.559 23.3799V25.1426C104.9 26.0918 103.424 26.5801 102.027 26.5801C100.387 26.5801 98.8652 25.8447 98.8652 24.2842C98.8652 22.7236 100.387 21.9824 102.027 21.9824C103.424 21.9824 104.9 22.4365 105.559 23.3799Z" fill="black"/>
    <path fill-rule="evenodd" clip-rule="evenodd" d="M114.053 2.85449V30.2344H120.375V27.9385C122.02 29.8242 124.031 30.7285 126.248 30.7285C131.133 30.7285 134.99 27.0342 134.99 20.3037C134.99 13.8135 131.217 9.91699 126.248 9.91699C125.211 9.91699 124.184 10.1123 123.225 10.5293C122.168 10.9873 121.193 11.7148 120.375 12.7471V2.85449H114.053ZM128.545 20.3037C128.545 23.2959 126.658 25.1426 124.154 25.1426C122.801 25.1426 121.156 24.4463 120.375 23.3799V17.3057C121.156 16.2383 122.801 15.498 124.154 15.498C126.658 15.498 128.545 17.3447 128.545 20.3037Z" fill="black"/>
    <path d="M135.895 2.85547H142.217V30.2351H135.895V2.85547Z" fill="black"/>
    <path fill-rule="evenodd" clip-rule="evenodd" d="M153.631 9.91406C147.432 9.91406 143.119 14.5518 143.119 20.3008C143.119 26.7451 147.803 30.7256 153.916 30.7256C156.955 30.7256 160.238 29.8662 162.209 28.0986L159.459 23.9551C158.312 25.0215 156.012 25.6396 154.613 25.6396C151.744 25.6396 150.098 24.1572 149.648 22.3945H163.771V20.957C163.771 14.2256 159.504 9.91406 153.631 9.91406ZM149.564 18.083C149.811 16.6455 150.879 15.0068 153.629 15.0068C156.543 15.0068 157.572 16.6855 157.734 18.083H149.564Z" fill="black"/>
</g>
</svg>
