<svg width="91" height="42" viewBox="0 0 91 42" fill="none" xmlns="http://www.w3.org/2000/svg">
<path d="M7.32227 20.996C7.32227 28.6937 13.5623 34.9561 21.2325 34.9561H34.2254C35.0414 34.9561 35.6742 34.1777 35.6742 33.5073V7.92537C35.6742 6.30931 36.9844 4.99411 38.5943 4.99411C39.6271 4.99411 40.5896 5.54367 41.1054 6.42897C41.1701 6.5404 45.1038 13.3467 49.2682 20.5534C53.2472 27.4396 57.3623 34.5603 57.4269 34.6721C57.6351 35.0285 58.0422 35.2584 58.4646 35.2584C59.1336 35.2584 59.6783 34.7123 59.6783 34.0404V7.92537C59.6783 6.30931 60.9876 4.99411 62.5983 4.99411C63.6311 4.99411 64.5936 5.54367 65.1091 6.42897C65.1745 6.5404 69.1049 13.3467 73.2666 20.5537C77.2419 27.4385 81.3532 34.5573 81.4194 34.6721C81.6276 35.0285 82.0346 35.2584 82.457 35.2584C83.1261 35.2584 83.67 34.7123 83.67 34.0404V0.182688H78.5487V20.3365C78.5487 20.3365 69.2693 4.30761 68.9688 3.79219C67.6142 1.46826 65.0455 0 62.3116 0C58.0291 0 54.5562 3.48684 54.5562 7.78432V20.3365C54.5562 20.3365 45.2773 4.30761 44.9764 3.79219C43.6217 1.46826 41.0531 0 38.3192 0C34.0367 0 30.5638 3.48684 30.5638 7.78432V28.4101C30.5664 29.1607 30.0042 29.8149 29.1856 29.8164H21.2874C16.4338 29.8164 12.4989 25.8674 12.4989 20.996C12.4989 16.1246 16.4338 12.1756 21.2874 12.1756H27.9031V7.03594H21.2325C13.5623 7.03594 7.32227 13.2983 7.32227 20.996Z" fill="black"/>
<path d="M85.3783 0.182617V34.0407C85.3783 35.6571 84.0689 36.972 82.4583 36.972C81.4255 36.972 80.463 36.4224 79.9472 35.5375C79.8825 35.426 75.9513 28.6193 71.7903 21.4127C67.8143 14.5283 63.7041 7.40874 63.6368 7.29433C63.4294 6.93796 63.0216 6.70763 62.5992 6.70763C61.9301 6.70763 61.3863 7.25381 61.3863 7.9253V34.0407C61.3863 35.6571 60.0761 36.972 58.4658 36.972C57.4331 36.972 56.4713 36.4224 55.9547 35.5375C55.8901 35.426 51.9563 28.6197 47.7919 21.4127C43.8125 14.5268 39.6978 7.40612 39.6328 7.29433C39.4246 6.93796 39.0175 6.70763 38.5952 6.70763C37.9261 6.70763 37.3822 7.25381 37.3822 7.9253V33.5076C37.3822 35.192 35.9076 36.6696 34.2267 36.6696H21.2337C12.6224 36.6696 5.61606 29.6389 5.61606 20.9959C5.61606 12.3537 12.6224 5.32266 21.2337 5.32266H27.904V0.182617H21.2397C9.78569 0.182617 0.5 9.50085 0.5 20.9959C0.5 32.4914 9.78569 41.81 21.2397 41.81H34.3571C39.3263 41.8126 42.5218 38.8907 42.5151 33.5013V21.6295C42.5151 21.6295 51.8606 37.7725 52.0953 38.1742C53.4499 40.4978 56.0186 41.9661 58.7525 41.9661C63.0354 41.9661 66.5076 38.4792 66.5076 34.1821V21.6295C66.5076 21.6295 75.7869 37.6588 76.0874 38.1742C77.4424 40.4978 80.0111 41.9661 82.745 41.9661C87.0275 41.9661 90.5 38.4792 90.5 34.1821V0.182617H85.3783Z" fill="black"/>
<path d="M5.61719 20.9959C5.61719 29.6385 12.6231 36.6696 21.2345 36.6696H34.2274C35.9084 36.6696 37.3833 35.192 37.3833 33.5073V7.9253C37.3833 7.25381 37.9272 6.70763 38.5963 6.70763C39.0187 6.70763 39.4257 6.93758 39.6339 7.29395C39.6986 7.40612 43.8136 14.5268 47.793 21.4127C51.9574 28.6193 55.8908 35.4257 55.9558 35.5375C56.472 36.4224 57.4338 36.9716 58.4666 36.9716C60.0773 36.9716 61.3874 35.6567 61.3874 34.0403V7.9253C61.3874 7.25381 61.9312 6.70763 62.6003 6.70763C63.0227 6.70763 63.4301 6.93758 63.638 7.29395C63.7049 7.40874 67.8154 14.528 71.7914 21.4123C75.9525 28.6189 79.8832 35.4257 79.9483 35.5375C80.4641 36.4224 81.4262 36.9716 82.459 36.9716C84.0697 36.9716 85.3795 35.6567 85.3795 34.0403V0.182617H83.672V34.0403C83.672 34.7122 83.1281 35.2584 82.459 35.2584C82.0367 35.2584 81.6296 35.0284 81.4214 34.672C81.3549 34.5572 77.2439 27.4384 73.2687 20.5537C69.1069 13.3467 65.1765 6.54032 65.1111 6.4289C64.5952 5.5436 63.6331 4.99404 62.6003 4.99404C60.9897 4.99404 59.6799 6.30923 59.6799 7.9253V34.0403C59.6799 34.7122 59.1357 35.2584 58.4666 35.2584C58.0442 35.2584 57.6371 35.0284 57.4289 34.672C57.3643 34.5603 53.2492 27.4395 49.2699 20.5533C45.1055 13.3467 41.1721 6.54033 41.107 6.4289C40.5912 5.5436 39.6291 4.99404 38.5963 4.99404C36.986 4.99404 35.6762 6.30924 35.6762 7.9253V33.5073C35.6762 34.1776 35.0434 34.956 34.2274 34.956H21.2345C13.5643 34.956 7.32428 28.6936 7.32428 20.9959C7.32428 13.2983 13.5643 7.03587 21.2345 7.03587H27.9048V5.32228H21.2345C12.6231 5.32228 5.61719 12.3533 5.61719 20.9959Z" fill="white"/>
</svg>
