<svg width="167" height="34" viewBox="0 0 167 34" fill="none" xmlns="http://www.w3.org/2000/svg">
<path fill-rule="evenodd" clip-rule="evenodd" d="M78.1953 0.111328V23.9434L80.0938 23.9424V28.543H73.4473V27.1016C71.7715 28.2656 69.873 28.8193 67.75 28.8193C64.957 28.8193 62.5566 27.8223 60.5449 25.8271C58.5352 23.8867 57.5293 21.4492 57.5293 18.6777C57.5293 18.0869 57.5781 17.5127 57.6719 16.9561C57.7266 16.6367 57.7969 16.3232 57.8809 16.0156C58.0996 15.2246 58.418 14.4717 58.832 13.7578C59.2891 12.9678 59.8633 12.2246 60.5449 11.5283C62.5 9.5332 64.9023 8.53516 67.75 8.53516C69.9277 8.53516 71.7715 9.14551 73.4473 10.2539V4.71094H71.5488V0.111328H78.1953ZM143.82 8.70215H146.055V13.3018H143.82V23.9434H145.719V28.4873H139.24V13.3018H136.895V8.70215H139.24V2.32812H143.82V8.70215ZM130.248 13.3018H128.797V8.70215H134.885V23.9434H136.783V28.5439H128.35V23.9434H130.248V13.3018ZM130.248 2.32812V6.87305H134.885V2.32812H130.248ZM1.89844 13.3027H0V8.70215H6.53516V10.8086C6.66211 10.6934 6.80664 10.5762 6.96484 10.46C7.12891 10.3379 7.30859 10.2158 7.50391 10.0967C7.60938 10.0322 7.7168 9.96973 7.83008 9.90723L8.13086 9.74707L8.37695 9.62598L8.58789 9.53027C8.75586 9.45508 8.92969 9.38184 9.10938 9.31152C9.5918 9.12402 10.1172 8.95801 10.6777 8.82422L10.9336 8.7666C11.1191 8.72656 11.3066 8.69043 11.498 8.6582C12.1699 8.54492 12.8828 8.48047 13.6289 8.48047V13.1914C8.04297 13.3027 6.53516 16.0176 6.53516 18.5674V23.9434H8.37695V28.5439H0V23.9434H1.89844V13.3027ZM57.082 8.70215V13.3027H55.6289V23.8877H57.082V28.4883H50.8828V27.2139C50.3242 27.5957 49.7461 27.9053 49.1445 28.1465C47.998 28.6064 46.7637 28.8203 45.4082 28.8203C43.7266 28.8203 42.1875 28.459 40.7891 27.7354C39.8652 27.2568 39.0039 26.6211 38.2031 25.8271C36.1934 23.8877 35.1875 21.5049 35.1875 18.6787C35.1875 17.418 35.3984 16.2461 35.8047 15.1572C36.3105 13.8037 37.1191 12.5791 38.2031 11.4736C40.1582 9.47852 42.5605 8.48047 45.4082 8.48047C47.4199 8.48047 49.2617 9.03516 50.8828 10.0879V8.70215H57.082ZM45.7422 24.498C42.4473 24.498 39.8223 21.8369 39.8223 18.6221C39.8223 15.3525 42.5039 12.748 45.7422 12.748C49.0371 12.748 51.5508 15.4082 51.5508 18.623C51.5508 21.8369 48.9824 24.498 45.7422 24.498ZM68.084 24.4971C64.7891 24.4971 62.1641 21.8369 62.1641 18.6221C62.1641 15.3525 64.8457 12.7471 68.084 12.7471C71.3242 12.7471 73.8926 15.4072 73.8926 18.6221C73.8926 21.8369 71.3242 24.4971 68.084 24.4971ZM127.457 8.70215V13.3018C121.816 13.4131 120.363 16.0176 120.309 18.5674V23.9434H122.207V28.5439H113.83V23.9434H115.729V13.3018H112.32L103.328 28.4883H96.8496V15.5742L89.1426 28.4883H82.5508V13.3018H80.6523V8.70215H89.0293V13.3018H87.1309V22.8906L95.5098 8.75781H101.43V22.835L106.959 13.3018H105.061V8.70215H120.363V10.8086C121.648 9.7002 124.217 8.70215 127.457 8.70215ZM33.623 20.0635C33.6797 19.6201 33.7363 19.1758 33.7363 18.6777C33.7363 13.0801 29.2676 8.53516 23.7383 8.53516C18.209 8.53516 13.7402 13.0801 13.7402 18.6777C13.7402 24.2754 18.209 28.8203 23.7383 28.8203C28.0391 28.8203 31.7246 26.0488 33.1211 22.2246H28.3184C27.2559 23.7207 25.5801 24.6631 23.6816 24.6631C23.4824 24.6631 23.2852 24.6523 23.0918 24.6318C22.8105 24.6025 22.5371 24.5527 22.2695 24.4834C21.8184 24.3672 21.3906 24.1963 20.9922 23.9766C19.5566 23.1865 18.4922 21.7734 18.0977 20.0635H33.623ZM28.9863 16.4053C28.1484 14.2441 26.082 12.6924 23.6816 12.6924C21.2793 12.6924 19.2129 14.2441 18.375 16.4053H28.9863ZM166.609 20.0635C166.666 19.6201 166.721 19.1758 166.721 18.6777C166.721 13.0801 162.254 8.53516 156.725 8.53516C151.195 8.53516 146.727 13.0801 146.727 18.6777C146.727 24.2754 151.195 28.8203 156.725 28.8203C161.023 28.8203 164.711 26.0488 166.107 22.2246H161.303C160.242 23.7207 158.566 24.6631 156.668 24.6631C153.932 24.6631 151.697 22.7236 151.082 20.0635H166.609ZM161.973 16.4053C161.135 14.2441 159.068 12.6924 156.668 12.6924C154.266 12.6924 152.199 14.2441 151.361 16.4053H161.973Z" fill="black"/>
</svg>
