<svg width="60" height="60" viewBox="0 0 60 60" fill="none" xmlns="http://www.w3.org/2000/svg">
<path d="M29.9987 59.9739C46.552 59.9739 59.9693 46.5578 59.9693 30.0045C59.9693 13.4488 46.552 0.0302734 29.9987 0.0302734C13.4442 0.0302734 0.0292969 13.4488 0.0292969 30.0045C0.0292969 46.5578 13.4442 59.9739 29.9987 59.9739Z" fill="black"/>
<path d="M18.6914 47.9022H20.7788V13.8711H18.6914V47.9022Z" fill="white"/>
<path d="M18.6914 47.9022H20.7788V13.8711H18.6914V47.9022Z" fill="white"/>
<path d="M10.1254 26.267C10.1619 24.0981 13.8793 24.0361 13.8793 26.1624L13.9133 28.0065H16.7549V26.3035C16.9386 20.6045 7.17306 20.613 7.24848 26.1624V35.9705C7.17306 41.5199 16.9411 41.6598 16.7671 35.9705V33.9123H13.8793V36.1104C13.8793 38.2416 10.1679 38.2745 10.1302 36.1104V26.1624L10.1254 26.267" fill="white"/>
<path d="M26.3595 24.0496C26.3595 24.0496 26.8558 23.3137 28.1562 22.5935C29.8044 21.68 31.4174 22.5896 31.1839 22.4889C32.483 23.0618 32.9745 24.4571 33.0669 26.0129V37.6238H34.8952V39.755H30.1937L30.1908 25.8779C30.1908 23.8538 26.7762 23.917 26.7434 25.9728L26.7473 25.8779V39.755H22.5287V37.619L23.8668 37.6238V24.6213L22.2793 24.6116V22.4889H26.3483L26.3593 24.0496" fill="white"/>
<path d="M47.6562 35.9239C47.7463 37.4797 48.2377 38.8762 49.5369 39.4515C49.2936 39.3396 50.1694 39.7763 51.072 39.7678C51.5464 39.7556 53.8382 39.7581 53.8382 39.7581V37.6244C53.8382 37.6244 52.6826 37.6098 52.0671 37.6147C51.2849 37.6244 50.6098 37.2534 50.5526 36.1538L50.5604 24.6329L50.5526 24.6121H53.3273V22.5235H50.5441L50.5599 22.4895V18.0215H47.6563V35.9238" fill="white"/>
<path fill-rule="evenodd" clip-rule="evenodd" d="M42.4297 36.1113V33.9131H45.3145V35.9717C45.4941 41.6611 35.7246 41.5205 35.8008 35.9717V26.1631C35.7246 20.6143 45.4844 20.6055 45.3047 26.3047V31.0098C45.3047 31.3027 45.0664 31.5391 44.7793 31.5391L38.6777 31.5352V36.1113C38.7168 38.2754 42.4297 38.2422 42.4297 36.1113ZM42.4297 26.1631C42.4297 24.0371 38.7285 24.0186 38.6777 26.1484V29.373L42.4199 29.3711L42.4297 26.1631Z" fill="white"/>
</svg>
