<svg width="170" height="30" viewBox="0 0 170 30" fill="none" xmlns="http://www.w3.org/2000/svg">
<mask id="mask0" mask-type="alpha" maskUnits="userSpaceOnUse" x="0" y="0" width="169" height="30">
<rect x="0.333984" width="168.537" height="29.3937" fill="white"/>
</mask>
<g mask="url(#mask0)">
<path d="M14.6446 7.846H10.4826V1.5293H3.74358V7.846H0.333984V12.2712H3.74358V21.5651C3.74358 27.2378 5.21016 28.9278 10.9581 28.9278C12.1869 28.9278 13.4157 28.7671 14.6446 28.7264V23.6978C14.0497 23.6978 13.4558 23.7782 12.9011 23.7782C11.4336 23.7782 10.4826 23.416 10.4826 21.7666V12.2712H14.6446V7.846Z" fill="black"/>
<path fill-rule="evenodd" clip-rule="evenodd" d="M24.627 7.3584C32 7.3584 35.6855 12.9492 35.3691 19.9805H20.2656C20.3848 22.8164 22.0117 24.6934 24.8652 24.6934C26.4902 24.6934 28.0762 23.9346 28.709 22.416H35.0137C33.7832 27.209 29.3828 29.2871 24.7852 29.2871C18.0859 29.2871 13.5273 25.2119 13.5273 18.2617C13.5273 11.9111 18.5625 7.3584 24.627 7.3584ZM24.627 11.9521C22.248 11.9521 20.6621 13.6689 20.2656 16.1855H28.6289C28.5117 13.8691 26.8848 11.9521 24.627 11.9521Z" fill="black"/>
<path d="M56.6685 15.4892C56.193 9.97729 51.6338 7.24121 46.5199 7.24121C39.9003 7.24121 35.7383 11.9889 35.7383 18.6272C35.7383 25.0243 40.3366 29.3303 46.5199 29.3303C51.9909 29.3303 56.2723 26.1109 56.8671 20.5187H50.3258C50.0088 22.7318 48.8191 24.0993 46.4808 24.0993C43.6269 24.0993 42.4763 21.3235 42.4763 18.6272C42.4763 15.7313 43.0721 12.4722 46.8379 12.4722C48.5422 12.4722 50.088 13.7187 50.1272 15.4892H56.6685Z" fill="black"/>
<path d="M57.0117 28.7264H63.7517V17.3404C63.7517 15.047 64.8611 12.8746 67.3981 12.8746C71.0845 12.8746 70.7676 15.7714 70.7676 18.6276V28.7264H77.5065V15.3288C77.5065 12.3119 76.9518 7.24165 70.0935 7.24165C67.6358 7.24165 64.8611 8.56949 63.83 10.7022H63.7517V0H57.0117V28.7264Z" fill="black"/>
<path d="M78.0195 28.789H84.7595V18.4394C84.7595 15.8224 86.5039 13.4863 89.8333 13.4863C90.7451 13.4863 91.5376 13.6471 92.4103 13.8892V7.6471C91.8947 7.52604 91.34 7.48633 90.8244 7.48633C87.9304 7.48633 85.6312 8.89553 84.6401 11.5532H84.5609V7.88923H78.0195V28.789Z" fill="black"/>
<path fill-rule="evenodd" clip-rule="evenodd" d="M102.031 11.7148C100.17 11.7148 98.9805 12.5596 98.6621 14.332H92.3594C92.4785 11.5938 93.748 9.82129 95.5703 8.73535C97.3945 7.68848 99.7734 7.28516 102.111 7.28516C106.988 7.28516 111.705 8.37207 111.705 14.292V23.4336C111.705 25.2061 111.705 27.1387 112.498 28.7891H105.719C105.48 28.1455 105.402 27.5 105.322 26.8164C103.578 28.668 101.002 29.3936 98.5449 29.3936C94.6191 29.3936 91.5273 27.3799 91.5273 23.0713C91.5273 17.5 96.416 16.8398 100.756 16.2529C101.717 16.123 102.652 15.9971 103.5 15.8223C104.09 15.6973 104.545 15.5303 104.848 15.2227C105.133 14.9326 105.283 14.5156 105.283 13.8896C105.283 12.3184 103.42 11.7148 102.031 11.7148ZM101.041 20.1299C99.5352 20.4932 98.2656 21.1377 98.2656 22.7891C98.2656 24.4795 99.5742 25.165 101.08 25.165C104.291 25.165 105.361 23.3115 105.203 19.0029C104.578 19.3994 103.613 19.5879 102.609 19.7842C102.082 19.8867 101.545 19.9922 101.041 20.1299Z" fill="black"/>
<path fill-rule="evenodd" clip-rule="evenodd" d="M126.498 0H133.238V28.7881H126.816V26.3691H126.736C125.428 28.3447 123.445 29.3936 121.068 29.3936C114.605 29.3936 111.871 23.749 111.871 17.8613C111.871 12.418 114.725 7.25781 120.553 7.25781C123.09 7.25781 125.031 8.22559 126.42 10.1201H126.498V0ZM126.736 18.3057C126.736 15.2812 125.666 12.499 122.732 12.499C119.639 12.499 118.609 15.4424 118.609 18.1035C118.609 19.7266 118.939 21.4531 119.789 22.6445C120.439 23.5547 121.393 24.1523 122.732 24.1523C124.201 24.1523 125.156 23.5166 125.764 22.5762C126.518 21.4111 126.736 19.7783 126.736 18.3057Z" fill="black"/>
<path fill-rule="evenodd" clip-rule="evenodd" d="M141.008 12.9355C140.742 13.3115 140.557 13.7764 140.457 14.332H134.154C134.273 11.5938 135.543 9.82129 137.365 8.73535C139.189 7.68848 141.568 7.28516 143.906 7.28516C148.783 7.28516 153.5 8.37207 153.5 14.292V23.4336C153.5 25.2061 153.5 27.1387 154.291 28.7891H147.514C147.367 28.3926 147.281 27.9961 147.217 27.5898C147.178 27.3359 147.148 27.0791 147.117 26.8164C145.373 28.668 142.795 29.3936 140.338 29.3936C136.414 29.3936 133.322 27.3799 133.322 23.0713C133.322 17.5 138.211 16.8398 142.551 16.2529C143.512 16.123 144.445 15.9971 145.293 15.8223C146.443 15.5801 147.076 15.1777 147.076 13.8896C147.076 12.3184 145.215 11.7148 143.826 11.7148C142.549 11.7148 141.588 12.1133 141.008 12.9355ZM142.836 20.1299C141.328 20.4932 140.061 21.1377 140.061 22.7891C140.061 24.4795 141.369 25.165 142.875 25.165C146.086 25.165 147.156 23.3115 146.998 19.0029C146.373 19.3994 145.408 19.5879 144.404 19.7842C143.877 19.8867 143.34 19.9922 142.836 20.1299Z" fill="black"/>
<path d="M154.48 28.789H161.22V18.4394C161.22 15.8224 162.965 13.4863 166.294 13.4863C167.206 13.4863 167.999 13.6471 168.871 13.8892V7.6471C168.356 7.52604 167.801 7.48633 167.285 7.48633C164.391 7.48633 162.092 8.89553 161.101 11.5532H161.022V7.88923H154.48V28.789Z" fill="black"/>
<path fill-rule="evenodd" clip-rule="evenodd" d="M162.332 28.7893H168.857V22.1064H162.332V28.7893Z" fill="black"/>
</g>
</svg>
